# xmcd
#
# Track frame offsets:
#	150
#	18712
#	41679
#	63645
#	83513
#	109041
#	133199
#	162262
#	184795
#	221735
#	246877
#	266394
#
# Disc length: 3895 seconds
#
# Revision: 1
# Processed by: cddbd v1.5.2PL0 Copyright (c) Steve Scherf et al.
# Submitted via: EZCDAudioConverter 8.0.2.1
#
DISCID=a90f350c
DTITLE=Duy Trường - Kẻ Trắng Tay
DYEAR=2011
DGENRE=Miscellaneous
TTITLE0=Duy Trường - Tội tình
TTITLE1=Duy Trường - Kẻ Trắng Tay
TTITLE2=Duy Trường, Mai Thiên Vân - Chuyện buồn tình yêu
TTITLE3=Duy Trường - Đừng trách anh tội nghiệp
TTITLE4=Duy Trường, Quỳnh Dung - Xiết chặt bàn tay
TTITLE5=Duy Trường - Đám cưới nghèo
TTITLE6=Duy Trường, Mai Thiên Vân, Quỳnh Dung - LK Phận bạc, Tội tình
TTITLE7=Duy Trường - Tiễn biệt
TTITLE8=Duy Trường, Phi Nhung - Khóc thầm, Buồn chi em ơi
TTITLE9=Duy Trường - Một thuở yêu em
TTITLE10=Duy Trường, Quỳnh Dung - Ngày xuân thăm nhau
TTITLE11=Duy Trường - Tân cổ. Tình đời 2
EXTD=
EXTT0=
EXTT1=
EXTT2=
EXTT3=
EXTT4=
EXTT5=
EXTT6=
EXTT7=
EXTT8=
EXTT9=
EXTT10=
EXTT11=
PLAYORDER=
